<svg width="146" height="27" viewBox="0 0 146 27" fill="none" xmlns="http://www.w3.org/2000/svg">
<rect y="3" width="7" height="6" fill="black"/>
<rect x="21" y="11" width="7" height="6" fill="black"/>
<rect x="10" y="3" width="18" height="6" fill="black"/>
<rect y="11" width="18" height="6" fill="black"/>
<rect y="19" width="28" height="6" fill="black"/>
<path d="M49.4351 4.95459H46.6592V3.06494H54.3716V4.95459H51.5957V14H49.4351V4.95459ZM58.2314 3.06494H60.8755L63.8271 14H61.6665L60.9927 11.2974H58.0996L57.4404 14H55.2798L58.2314 3.06494ZM60.5752 9.51758L59.5498 5.04248L58.5317 9.51758H60.5752ZM64.9917 3.05029H68.5146C69.7402 3.05029 70.6558 3.27979 71.2612 3.73877C71.8716 4.20264 72.1768 4.89355 72.1768 5.81152C72.1768 6.50488 71.9961 7.0542 71.6348 7.45947C71.2686 7.85498 70.7388 8.08447 70.0454 8.14795C70.8804 8.22607 71.5103 8.50684 71.9351 8.99023C72.355 9.46875 72.5649 10.1401 72.5649 11.0044C72.5649 12.0542 72.2476 12.8159 71.6128 13.2896C70.978 13.7632 69.9453 14 68.5146 14H64.9917V3.05029ZM68.5146 7.31299C69.0664 7.31299 69.457 7.21289 69.6865 7.0127C69.7988 6.91504 69.8843 6.79297 69.9429 6.64648C70.0015 6.49512 70.0308 6.29736 70.0308 6.05322C70.0308 5.61377 69.9136 5.28906 69.6792 5.0791C69.5767 4.99121 69.4351 4.91797 69.2544 4.85938C69.0786 4.80078 68.832 4.77148 68.5146 4.77148H67.0791V7.31299H68.5146ZM68.5146 12.2715C69.2031 12.2715 69.6865 12.1543 69.9648 11.9199C70.2383 11.6855 70.375 11.2778 70.375 10.6968C70.375 10.106 70.231 9.68115 69.9429 9.42236C69.6548 9.16357 69.1787 9.03418 68.5146 9.03418H67.0791V12.2715H68.5146ZM74.7329 8.53613H80.5264V10.6675H74.7329V8.53613ZM82.7822 3.06494H85.3604L86.6641 7.8623L87.9604 3.06494H90.5532V14H88.6929V5.24023L87.5356 10.0229H85.8145L84.6426 5.24023V14H82.7822V3.06494ZM94.3838 3.06494H97.0278L99.9795 14H97.8188L97.145 11.2974H94.252L93.5928 14H91.4321L94.3838 3.06494ZM96.7275 9.51758L95.7021 5.04248L94.6841 9.51758H96.7275ZM101.1 3.06494H103.422L106.469 11.0117V3.06494H108.373V14H106.066L103.004 6.05322V14H101.1V3.06494ZM112.46 3.06494H115.104L118.056 14H115.895L115.221 11.2974H112.328L111.669 14H109.508L112.46 3.06494ZM114.804 9.51758L113.778 5.04248L112.76 9.51758H114.804ZM123.578 14.2124C122.172 14.2124 121.085 13.7217 120.319 12.7402C119.953 12.2715 119.667 11.6904 119.462 10.9971C119.262 10.3037 119.162 9.48096 119.162 8.52881C119.162 6.68799 119.552 5.28662 120.333 4.32471C121.115 3.35303 122.226 2.86719 123.666 2.86719C124.13 2.86719 124.574 2.92822 124.999 3.05029C125.429 3.17725 125.827 3.35791 126.193 3.59229V5.9873C125.89 5.59668 125.543 5.30127 125.153 5.10107C124.767 4.90576 124.337 4.80811 123.864 4.80811C123.039 4.80811 122.423 5.11572 122.018 5.73096C121.613 6.35596 121.41 7.28857 121.41 8.52881C121.41 9.74463 121.605 10.6772 121.996 11.3267C122.182 11.6294 122.414 11.8638 122.692 12.0298C122.975 12.1909 123.314 12.2715 123.71 12.2715C123.808 12.2715 123.908 12.2666 124.01 12.2568C124.113 12.2471 124.206 12.23 124.289 12.2056C124.396 12.1812 124.477 12.1543 124.53 12.125C124.584 12.0957 124.638 12.0615 124.691 12.0225V9.93506H123.212V8.11865H126.581V13.1284C126.166 13.4849 125.709 13.7534 125.211 13.9341C124.958 14.0269 124.699 14.0952 124.435 14.1392C124.171 14.188 123.886 14.2124 123.578 14.2124ZM128.573 3.06494H135.385V4.96924H130.734V7.32764H134.945V9.23193H130.734V12.0957H135.385V14H128.573V3.06494ZM137.355 3.06494H140.475C141.881 3.06494 142.892 3.31396 143.507 3.81201C143.815 4.06104 144.044 4.39062 144.196 4.80078C144.347 5.20605 144.423 5.6748 144.423 6.20703C144.423 6.61719 144.376 6.96875 144.284 7.26172C144.196 7.55469 144.059 7.81348 143.874 8.03809C143.698 8.25293 143.48 8.42871 143.222 8.56543C142.968 8.69727 142.658 8.7876 142.292 8.83643C142.521 8.89014 142.709 8.99023 142.855 9.13672C142.929 9.20996 143.012 9.32227 143.104 9.47363C143.202 9.625 143.312 9.82275 143.434 10.0669L145.412 14H143.039L141.72 11.2388L141.566 10.9165C141.361 10.4966 141.151 10.1865 140.937 9.98633C140.722 9.78125 140.478 9.67871 140.204 9.67871H139.516V14H137.355V3.06494ZM140.534 7.8623C141.125 7.8623 141.549 7.74512 141.808 7.51074C141.925 7.40332 142.018 7.25928 142.086 7.07861C142.155 6.89795 142.189 6.66113 142.189 6.36816C142.189 5.83105 142.062 5.4502 141.808 5.22559C141.549 4.99609 141.125 4.88135 140.534 4.88135H139.516V7.8623H140.534Z" fill="black"/>
<path d="M131.533 19.626H134.258V20.3877H132.397V21.3604H134.091V22.1221H132.397V24H131.533V19.626ZM135.005 19.626H136.253C136.815 19.626 137.22 19.7256 137.466 19.9248C137.589 20.0244 137.681 20.1562 137.741 20.3203C137.802 20.4824 137.832 20.6699 137.832 20.8828C137.832 21.0469 137.813 21.1875 137.776 21.3047C137.741 21.4219 137.687 21.5254 137.612 21.6152C137.542 21.7012 137.455 21.7715 137.352 21.8262C137.25 21.8789 137.126 21.915 136.979 21.9346C137.071 21.9561 137.146 21.9961 137.205 22.0547C137.234 22.084 137.268 22.1289 137.305 22.1895C137.344 22.25 137.388 22.3291 137.437 22.4268L138.228 24H137.278L136.751 22.8955L136.689 22.7666C136.607 22.5986 136.523 22.4746 136.438 22.3945C136.352 22.3125 136.254 22.2715 136.145 22.2715H135.869V24H135.005V19.626ZM136.276 21.5449C136.513 21.5449 136.683 21.498 136.786 21.4043C136.833 21.3613 136.87 21.3037 136.897 21.2314C136.925 21.1592 136.938 21.0645 136.938 20.9473C136.938 20.7324 136.888 20.5801 136.786 20.4902C136.683 20.3984 136.513 20.3525 136.276 20.3525H135.869V21.5449H136.276ZM138.723 19.626H141.447V20.3877H139.587V21.3311H141.271V22.0928H139.587V23.2383H141.447V24H138.723V19.626ZM142.338 19.626H145.062V20.3877H143.202V21.3311H144.887V22.0928H143.202V23.2383H145.062V24H142.338V19.626Z" fill="#3D73FF"/>
</svg>
